<?xml version="1.0" encoding="UTF-8"?>
                <svg xmlns="http://www.w3.org/2000/svg"
                version="1.1" baseProfile="full"
                viewBox="-441.17 -870.74426 702.08453 949.9029">
<g stroke="black" stroke-width="0.9499029" fill="none">
<path d="M0 0 L0 -10 L0 -20 L0 -30 L0 -40 L0 -50 L0 -60 L0 -70 L0 -80 L0 -90 L0 -100 L0 -110 L0 -120 L0 -130 L0 -140 L0 -150 L0 -160 L4.226183 -169.06308 L8.452366 -178.12616 L12.678549 -187.18924 L16.904732 -196.25232 L21.130915 -205.3154 L25.357098 -214.37848 L29.58328 -223.44156 L33.809464 -232.50464 L41.46991 -238.93251 L49.130356 -245.36038 L56.790802 -251.78825 L64.45125 -258.21613 L74.110504 -260.80432 L83.76976 -263.39252 L93.617836 -261.65604" />
<path d="M93.617836 -261.65604 L103.46591 -259.91956 L113.12517 -262.50775" />
<path d="M83.76976 -263.39252 L93.429016 -265.9807" />
<path d="M93.429016 -265.9807 L103.08827 -268.5689 L110.74872 -274.9968" />
<path d="M83.76976 -263.39252 L93.429016 -265.9807 L103.08827 -268.5689 L110.74872 -274.9968 L118.409164 -281.42468 L126.06961 -287.85257" />
<path d="M126.06961 -287.85257 L133.73006 -294.28046 L137.95624 -303.34354" />
<path d="M103.08827 -268.5689 L112.93635 -266.83243" />
<path d="M112.93635 -266.83243 L122.784424 -265.09595 L132.44368 -267.68414" />
<path d="M64.45125 -258.21613 L72.111694 -264.644 L79.77214 -271.0719 L89.4314 -273.6601" />
<path d="M89.4314 -273.6601 L99.09065 -276.2483 L106.7511 -282.67618" />
<path d="M79.77214 -271.0719 L87.43259 -277.4998" />
<path d="M87.43259 -277.4998 L95.09303 -283.92767 L99.319214 -292.99075" />
<path d="M79.77214 -271.0719 L87.43259 -277.4998 L95.09303 -283.92767 L99.319214 -292.99075 L103.545395 -302.05383 L107.771576 -311.1169" />
<path d="M107.771576 -311.1169 L111.99776 -320.18 L111.99776 -330.18" />
<path d="M95.09303 -283.92767 L104.75229 -286.51587" />
<path d="M104.75229 -286.51587 L114.411545 -289.10406 L122.07199 -295.53195" />
<path d="M64.45125 -258.21613 L72.111694 -264.644 L79.77214 -271.0719 L87.43259 -277.4998 L95.09303 -283.92767 L99.319214 -292.99075 L103.545395 -302.05383 L107.771576 -311.1169 L111.99776 -320.18 L116.22394 -329.24307 L120.45012 -338.30615 L128.11057 -344.73404" />
<path d="M128.11057 -344.73404 L135.77101 -351.16193 L139.9972 -360.225" />
<path d="M120.45012 -338.30615 L124.6763 -347.36923" />
<path d="M124.6763 -347.36923 L128.90248 -356.4323 L128.90248 -366.4323" />
<path d="M120.45012 -338.30615 L124.6763 -347.36923 L128.90248 -356.4323 L128.90248 -366.4323 L128.90248 -376.4323 L128.90248 -386.4323" />
<path d="M128.90248 -386.4323 L128.90248 -396.4323 L124.6763 -405.4954" />
<path d="M128.90248 -356.4323 L136.56293 -362.8602" />
<path d="M136.56293 -362.8602 L144.22337 -369.2881 L148.44955 -378.35117" />
<path d="M95.09303 -283.92767 L104.75229 -286.51587 L114.411545 -289.10406 L124.25962 -287.36758" />
<path d="M124.25962 -287.36758 L134.1077 -285.6311 L143.76695 -288.2193" />
<path d="M114.411545 -289.10406 L124.0708 -291.69226" />
<path d="M124.0708 -291.69226 L133.73006 -294.28046 L141.3905 -300.70834" />
<path d="M114.411545 -289.10406 L124.0708 -291.69226 L133.73006 -294.28046 L141.3905 -300.70834 L149.05095 -307.13623 L156.7114 -313.56412" />
<path d="M156.7114 -313.56412 L164.37184 -319.992 L168.59802 -329.05508" />
<path d="M133.73006 -294.28046 L143.57814 -292.54398" />
<path d="M143.57814 -292.54398 L153.42622 -290.8075 L163.08548 -293.3957" />
<path d="M33.809464 -232.50464 L38.035645 -241.56772 L42.261826 -250.6308 L46.488007 -259.69388 L50.714188 -268.75696 L58.374634 -275.18484 L66.03508 -281.61273 L75.694336 -284.20093" />
<path d="M75.694336 -284.20093 L85.35359 -286.78912 L93.01404 -293.217" />
<path d="M66.03508 -281.61273 L73.695526 -288.04062" />
<path d="M73.695526 -288.04062 L81.35597 -294.4685 L85.58215 -303.5316" />
<path d="M66.03508 -281.61273 L73.695526 -288.04062 L81.35597 -294.4685 L85.58215 -303.5316 L89.808334 -312.59467 L94.034515 -321.65775" />
<path d="M94.034515 -321.65775 L98.2607 -330.72083 L98.2607 -340.72083" />
<path d="M81.35597 -294.4685 L91.01523 -297.0567" />
<path d="M91.01523 -297.0567 L100.674484 -299.6449 L108.33493 -306.07278" />
<path d="M50.714188 -268.75696 L54.94037 -277.82004 L59.16655 -286.88312 L66.826996 -293.311" />
<path d="M66.826996 -293.311 L74.48744 -299.7389 L78.71362 -308.80197" />
<path d="M59.16655 -286.88312 L63.39273 -295.9462" />
<path d="M63.39273 -295.9462 L67.61891 -305.00928 L67.61891 -315.00928" />
<path d="M59.16655 -286.88312 L63.39273 -295.9462 L67.61891 -305.00928 L67.61891 -315.00928 L67.61891 -325.00928 L67.61891 -335.00928" />
<path d="M67.61891 -335.00928 L67.61891 -345.00928 L63.39273 -354.07236" />
<path d="M67.61891 -305.00928 L75.27936 -311.43716" />
<path d="M75.27936 -311.43716 L82.939804 -317.86505 L87.165985 -326.92813" />
<path d="M50.714188 -268.75696 L54.94037 -277.82004 L59.16655 -286.88312 L63.39273 -295.9462 L67.61891 -305.00928 L67.61891 -315.00928 L67.61891 -325.00928 L67.61891 -335.00928 L67.61891 -345.00928 L67.61891 -355.00928 L67.61891 -365.00928 L71.84509 -374.07236" />
<path d="M71.84509 -374.07236 L76.07127 -383.13544 L76.07127 -393.13544" />
<path d="M67.61891 -365.00928 L67.61891 -375.00928" />
<path d="M67.61891 -375.00928 L67.61891 -385.00928 L63.39273 -394.07236" />
<path d="M67.61891 -365.00928 L67.61891 -375.00928 L67.61891 -385.00928 L63.39273 -394.07236 L59.16655 -403.13544 L54.94037 -412.19852" />
<path d="M54.94037 -412.19852 L50.714188 -421.2616 L43.05374 -427.68948" />
<path d="M67.61891 -385.00928 L71.84509 -394.07236" />
<path d="M71.84509 -394.07236 L76.07127 -403.13544 L76.07127 -413.13544" />
<path d="M67.61891 -305.00928 L75.27936 -311.43716 L82.939804 -317.86505 L92.59906 -320.45325" />
<path d="M92.59906 -320.45325 L102.258316 -323.04144 L109.91876 -329.46933" />
<path d="M82.939804 -317.86505 L90.60025 -324.29294" />
<path d="M90.60025 -324.29294 L98.2607 -330.72083 L102.48688 -339.7839" />
<path d="M82.939804 -317.86505 L90.60025 -324.29294 L98.2607 -330.72083 L102.48688 -339.7839 L106.71306 -348.847 L110.93924 -357.91006" />
<path d="M110.93924 -357.91006 L115.16542 -366.97314 L115.16542 -376.97314" />
<path d="M98.2607 -330.72083 L107.91995 -333.30902" />
<path d="M107.91995 -333.30902 L117.57921 -335.89722 L125.239655 -342.3251" />
<path d="M33.809464 -232.50464 L38.035645 -241.56772 L42.261826 -250.6308 L46.488007 -259.69388 L50.714188 -268.75696 L54.94037 -277.82004 L59.16655 -286.88312 L63.39273 -295.9462 L67.61891 -305.00928 L67.61891 -315.00928 L67.61891 -325.00928 L67.61891 -335.00928 L67.61891 -345.00928 L67.61891 -355.00928 L67.61891 -365.00928 L67.61891 -375.00928 L67.61891 -385.00928 L67.61891 -395.00928 L67.61891 -405.00928 L67.61891 -415.00928 L67.61891 -425.00928 L71.84509 -434.07236 L76.07127 -443.13544 L83.73172 -449.56332" />
<path d="M83.73172 -449.56332 L91.392166 -455.9912 L95.61835 -465.0543" />
<path d="M76.07127 -443.13544 L80.297455 -452.19852" />
<path d="M80.297455 -452.19852 L84.523636 -461.2616 L84.523636 -471.2616" />
<path d="M76.07127 -443.13544 L80.297455 -452.19852 L84.523636 -461.2616 L84.523636 -471.2616 L84.523636 -481.2616 L84.523636 -491.2616" />
<path d="M84.523636 -491.2616 L84.523636 -501.2616 L80.297455 -510.32468" />
<path d="M84.523636 -461.2616 L92.18408 -467.68948" />
<path d="M92.18408 -467.68948 L99.84453 -474.11737 L104.07071 -483.18045" />
<path d="M67.61891 -425.00928 L67.61891 -435.00928 L67.61891 -445.00928 L71.84509 -454.07236" />
<path d="M71.84509 -454.07236 L76.07127 -463.13544 L76.07127 -473.13544" />
<path d="M67.61891 -445.00928 L67.61891 -455.00928" />
<path d="M67.61891 -455.00928 L67.61891 -465.00928 L63.39273 -474.07236" />
<path d="M67.61891 -445.00928 L67.61891 -455.00928 L67.61891 -465.00928 L63.39273 -474.07236 L59.16655 -483.13544 L54.94037 -492.19852" />
<path d="M54.94037 -492.19852 L50.714188 -501.2616 L43.05374 -507.68948" />
<path d="M67.61891 -465.00928 L71.84509 -474.07236" />
<path d="M71.84509 -474.07236 L76.07127 -483.13544 L76.07127 -493.13544" />
<path d="M67.61891 -425.00928 L67.61891 -435.00928 L67.61891 -445.00928 L67.61891 -455.00928 L67.61891 -465.00928 L63.39273 -474.07236 L59.16655 -483.13544 L54.94037 -492.19852 L50.714188 -501.2616 L46.488007 -510.32468 L42.261826 -519.38776 L42.261826 -529.38776" />
<path d="M42.261826 -529.38776 L42.261826 -539.38776 L38.035645 -548.4508" />
<path d="M42.261826 -519.38776 L38.035645 -528.4508" />
<path d="M38.035645 -528.4508 L33.809464 -537.51385 L26.14902 -543.9417" />
<path d="M42.261826 -519.38776 L38.035645 -528.4508 L33.809464 -537.51385 L26.14902 -543.9417 L18.488575 -550.36957 L10.828131 -556.7974" />
<path d="M10.828131 -556.7974 L3.1676865 -563.2253 L-6.4915724 -565.8135" />
<path d="M33.809464 -537.51385 L33.809464 -547.51385" />
<path d="M33.809464 -547.51385 L33.809464 -557.51385 L29.58328 -566.5769" />
<path d="M67.61891 -465.00928 L71.84509 -474.07236 L76.07127 -483.13544 L83.73172 -489.56332" />
<path d="M83.73172 -489.56332 L91.392166 -495.9912 L95.61835 -505.0543" />
<path d="M76.07127 -483.13544 L80.297455 -492.19852" />
<path d="M80.297455 -492.19852 L84.523636 -501.2616 L84.523636 -511.2616" />
<path d="M76.07127 -483.13544 L80.297455 -492.19852 L84.523636 -501.2616 L84.523636 -511.2616 L84.523636 -521.2616 L84.523636 -531.2616" />
<path d="M84.523636 -531.2616 L84.523636 -541.2616 L80.297455 -550.32465" />
<path d="M84.523636 -501.2616 L92.18408 -507.68948" />
<path d="M92.18408 -507.68948 L99.84453 -514.1174 L104.07071 -523.1804" />
<path d="M67.61891 -305.00928 L75.27936 -311.43716 L82.939804 -317.86505 L90.60025 -324.29294 L98.2607 -330.72083 L107.91995 -333.30902 L117.57921 -335.89722 L127.427284 -334.16074" />
<path d="M127.427284 -334.16074 L137.27536 -332.42426 L146.93462 -335.01245" />
<path d="M117.57921 -335.89722 L127.238464 -338.4854" />
<path d="M127.238464 -338.4854 L136.89772 -341.0736 L144.55817 -347.5015" />
<path d="M117.57921 -335.89722 L127.238464 -338.4854 L136.89772 -341.0736 L144.55817 -347.5015 L152.21861 -353.92938 L159.87906 -360.35727" />
<path d="M159.87906 -360.35727 L167.5395 -366.78516 L171.76569 -375.84824" />
<path d="M136.89772 -341.0736 L146.7458 -339.33713" />
<path d="M146.7458 -339.33713 L156.59389 -337.60065 L166.25314 -340.18884" />
<path d="M98.2607 -330.72083 L105.92114 -337.1487 L113.58159 -343.5766 L123.240845 -346.1648" />
<path d="M123.240845 -346.1648 L132.9001 -348.753 L140.56055 -355.18088" />
<path d="M113.58159 -343.5766 L121.242035 -350.0045" />
<path d="M121.242035 -350.0045 L128.90248 -356.43237 L133.12866 -365.49545" />
<path d="M113.58159 -343.5766 L121.242035 -350.0045 L128.90248 -356.43237 L133.12866 -365.49545 L137.35484 -374.55853 L141.58102 -383.6216" />
<path d="M141.58102 -383.6216 L145.8072 -392.6847 L145.8072 -402.6847" />
<path d="M128.90248 -356.43237 L138.56174 -359.02057" />
<path d="M138.56174 -359.02057 L148.221 -361.60876 L155.88144 -368.03665" />
<path d="M98.2607 -330.72083 L105.92114 -337.1487 L113.58159 -343.5766 L121.242035 -350.0045 L128.90248 -356.43237 L133.12866 -365.49545 L137.35484 -374.55853 L141.58102 -383.6216 L145.8072 -392.6847 L150.03339 -401.74777 L154.25957 -410.81085 L161.92001 -417.23874" />
<path d="M161.92001 -417.23874 L169.58046 -423.66663 L173.80664 -432.7297" />
<path d="M154.25957 -410.81085 L158.48575 -419.87393" />
<path d="M158.48575 -419.87393 L162.71193 -428.937 L162.71193 -438.937" />
<path d="M154.25957 -410.81085 L158.48575 -419.87393 L162.71193 -428.937 L162.71193 -438.937 L162.71193 -448.937 L162.71193 -458.937" />
<path d="M162.71193 -458.937 L162.71193 -468.937 L158.48575 -478.0001" />
<path d="M162.71193 -428.937 L170.37238 -435.3649" />
<path d="M170.37238 -435.3649 L178.03282 -441.7928 L182.259 -450.85587" />
<path d="M128.90248 -356.43237 L138.56174 -359.02057 L148.221 -361.60876 L158.06908 -359.87228" />
<path d="M158.06908 -359.87228 L167.91716 -358.1358 L177.57642 -360.724" />
<path d="M148.221 -361.60876 L157.88025 -364.19696" />
<path d="M157.88025 -364.19696 L167.5395 -366.78516 L175.19995 -373.21304" />
<path d="M148.221 -361.60876 L157.88025 -364.19696 L167.5395 -366.78516 L175.19995 -373.21304 L182.8604 -379.64093 L190.52084 -386.06882" />
<path d="M190.52084 -386.06882 L198.18129 -392.4967 L202.40747 -401.55978" />
<path d="M167.5395 -366.78516 L177.38759 -365.04868" />
<path d="M177.38759 -365.04868 L187.23567 -363.3122 L196.89493 -365.9004" />
<path d="M0 -160 L0 -170 L0 -180 L0 -190 L0 -200 L0 -210 L0 -220 L0 -230 L0 -240 L4.226183 -249.06308 L8.452366 -258.12616 L12.678549 -267.18924 L16.904732 -276.25232 L24.565176 -282.6802 L32.22562 -289.1081 L41.88488 -291.6963" />
<path d="M41.88488 -291.6963 L51.54414 -294.2845 L59.204582 -300.71237" />
<path d="M32.22562 -289.1081 L39.886063 -295.53598" />
<path d="M39.886063 -295.53598 L47.54651 -301.96387 L51.77269 -311.02695" />
<path d="M32.22562 -289.1081 L39.886063 -295.53598 L47.54651 -301.96387 L51.77269 -311.02695 L55.99887 -320.09003 L60.22505 -329.1531" />
<path d="M60.22505 -329.1531 L64.45123 -338.2162 L64.45123 -348.2162" />
<path d="M47.54651 -301.96387 L57.20577 -304.55206" />
<path d="M57.20577 -304.55206 L66.86503 -307.14026 L74.525475 -313.56815" />
<path d="M16.904732 -276.25232 L21.130915 -285.3154 L25.357098 -294.37848 L33.01754 -300.80637" />
<path d="M33.01754 -300.80637 L40.677986 -307.23425 L44.904167 -316.29733" />
<path d="M25.357098 -294.37848 L29.58328 -303.44156" />
<path d="M29.58328 -303.44156 L33.809464 -312.50464 L33.809464 -322.50464" />
<path d="M25.357098 -294.37848 L29.58328 -303.44156 L33.809464 -312.50464 L33.809464 -322.50464 L33.809464 -332.50464 L33.809464 -342.50464" />
<path d="M33.809464 -342.50464 L33.809464 -352.50464 L29.58328 -361.56772" />
<path d="M33.809464 -312.50464 L41.46991 -318.93253" />
<path d="M41.46991 -318.93253 L49.130356 -325.3604 L53.356537 -334.4235" />
<path d="M16.904732 -276.25232 L21.130915 -285.3154 L25.357098 -294.37848 L29.58328 -303.44156 L33.809464 -312.50464 L33.809464 -322.50464 L33.809464 -332.50464 L33.809464 -342.50464 L33.809464 -352.50464 L33.809464 -362.50464 L33.809464 -372.50464 L38.035645 -381.56772" />
<path d="M38.035645 -381.56772 L42.261826 -390.6308 L42.261826 -400.6308" />
<path d="M33.809464 -372.50464 L33.809464 -382.50464" />
<path d="M33.809464 -382.50464 L33.809464 -392.50464 L29.58328 -401.56772" />
<path d="M33.809464 -372.50464 L33.809464 -382.50464 L33.809464 -392.50464 L29.58328 -401.56772 L25.357098 -410.6308 L21.130915 -419.69388" />
<path d="M21.130915 -419.69388 L16.904732 -428.75696 L9.2442875 -435.18484" />
<path d="M33.809464 -392.50464 L38.035645 -401.56772" />
<path d="M38.035645 -401.56772 L42.261826 -410.6308 L42.261826 -420.6308" />
<path d="M33.809464 -312.50464 L41.46991 -318.93253 L49.130356 -325.3604 L58.789616 -327.9486" />
<path d="M58.789616 -327.9486 L68.448875 -330.5368 L76.10932 -336.9647" />
<path d="M49.130356 -325.3604 L56.790802 -331.7883" />
<path d="M56.790802 -331.7883 L64.45125 -338.2162 L68.67743 -347.27927" />
<path d="M49.130356 -325.3604 L56.790802 -331.7883 L64.45125 -338.2162 L68.67743 -347.27927 L72.90361 -356.34235 L77.12979 -365.40543" />
<path d="M77.12979 -365.40543 L81.35597 -374.4685 L81.35597 -384.4685" />
<path d="M64.45125 -338.2162 L74.110504 -340.80438" />
<path d="M74.110504 -340.80438 L83.76976 -343.39258 L91.43021 -349.82047" />
<path d="M0 -240 L0 -250 L0 -260 L0 -270 L0 -280 L4.226183 -289.06308 L8.452366 -298.12616 L16.11281 -304.55405" />
<path d="M16.11281 -304.55405 L23.773254 -310.98193 L27.999437 -320.045" />
<path d="M8.452366 -298.12616 L12.678549 -307.18924" />
<path d="M12.678549 -307.18924 L16.904732 -316.25232 L16.904732 -326.25232" />
<path d="M8.452366 -298.12616 L12.678549 -307.18924 L16.904732 -316.25232 L16.904732 -326.25232 L16.904732 -336.25232 L16.904732 -346.25232" />
<path d="M16.904732 -346.25232 L16.904732 -356.25232 L12.678549 -365.3154" />
<path d="M16.904732 -316.25232 L24.565176 -322.6802" />
<path d="M24.565176 -322.6802 L32.22562 -329.1081 L36.451805 -338.17117" />
<path d="M0 -280 L0 -290 L0 -300 L4.226183 -309.06308" />
<path d="M4.226183 -309.06308 L8.452366 -318.12616 L8.452366 -328.12616" />
<path d="M0 -300 L0 -310" />
<path d="M0 -310 L0 -320 L-4.226183 -329.06308" />
<path d="M0 -300 L0 -310 L0 -320 L-4.226183 -329.06308 L-8.452366 -338.12616 L-12.678549 -347.18924" />
<path d="M-12.678549 -347.18924 L-16.904732 -356.25232 L-24.565176 -362.6802" />
<path d="M0 -320 L4.226183 -329.06308" />
<path d="M4.226183 -329.06308 L8.452366 -338.12616 L8.452366 -348.12616" />
<path d="M0 -280 L0 -290 L0 -300 L0 -310 L0 -320 L-4.226183 -329.06308 L-8.452366 -338.12616 L-12.678549 -347.18924 L-16.904732 -356.25232 L-21.130915 -365.3154 L-25.357098 -374.37848 L-25.357098 -384.37848" />
<path d="M-25.357098 -384.37848 L-25.357098 -394.37848 L-29.58328 -403.44156" />
<path d="M-25.357098 -374.37848 L-29.58328 -383.44156" />
<path d="M-29.58328 -383.44156 L-33.809464 -392.50464 L-41.46991 -398.93253" />
<path d="M-25.357098 -374.37848 L-29.58328 -383.44156 L-33.809464 -392.50464 L-41.46991 -398.93253 L-49.130356 -405.3604 L-56.790802 -411.7883" />
<path d="M-56.790802 -411.7883 L-64.45125 -418.2162 L-74.110504 -420.80438" />
<path d="M-33.809464 -392.50464 L-33.809464 -402.50464" />
<path d="M-33.809464 -402.50464 L-33.809464 -412.50464 L-38.035645 -421.56772" />
<path d="M0 -320 L4.226183 -329.06308 L8.452366 -338.12616 L16.11281 -344.55405" />
<path d="M16.11281 -344.55405 L23.773254 -350.98193 L27.999437 -360.045" />
<path d="M8.452366 -338.12616 L12.678549 -347.18924" />
<path d="M12.678549 -347.18924 L16.904732 -356.25232 L16.904732 -366.25232" />
<path d="M8.452366 -338.12616 L12.678549 -347.18924 L16.904732 -356.25232 L16.904732 -366.25232 L16.904732 -376.25232 L16.904732 -386.25232" />
<path d="M16.904732 -386.25232 L16.904732 -396.25232 L12.678549 -405.3154" />
<path d="M16.904732 -356.25232 L24.565176 -362.6802" />
<path d="M24.565176 -362.6802 L32.22562 -369.1081 L36.451805 -378.17117" />
<path d="M0 -240 L0 -250 L0 -260 L0 -270 L0 -280 L0 -290 L0 -300 L0 -310 L0 -320 L-4.226183 -329.06308 L-8.452366 -338.12616 L-12.678549 -347.18924 L-16.904732 -356.25232 L-21.130915 -365.3154 L-25.357098 -374.37848 L-29.58328 -383.44156 L-33.809464 -392.50464 L-38.035645 -401.56772 L-42.261826 -410.6308 L-46.488007 -419.69388 L-50.714188 -428.75696 L-50.714188 -438.75696 L-50.714188 -448.75696 L-46.488007 -457.82004" />
<path d="M-46.488007 -457.82004 L-42.261826 -466.88312 L-42.261826 -476.88312" />
<path d="M-50.714188 -448.75696 L-50.714188 -458.75696" />
<path d="M-50.714188 -458.75696 L-50.714188 -468.75696 L-54.94037 -477.82004" />
<path d="M-50.714188 -448.75696 L-50.714188 -458.75696 L-50.714188 -468.75696 L-54.94037 -477.82004 L-59.16655 -486.88312 L-63.39273 -495.9462" />
<path d="M-63.39273 -495.9462 L-67.61891 -505.00928 L-75.27936 -511.43716" />
<path d="M-50.714188 -468.75696 L-46.488007 -477.82004" />
<path d="M-46.488007 -477.82004 L-42.261826 -486.88312 L-42.261826 -496.88312" />
<path d="M-50.714188 -428.75696 L-54.94037 -437.82004 L-59.16655 -446.88312 L-59.16655 -456.88312" />
<path d="M-59.16655 -456.88312 L-59.16655 -466.88312 L-63.39273 -475.9462" />
<path d="M-59.16655 -446.88312 L-63.39273 -455.9462" />
<path d="M-63.39273 -455.9462 L-67.61891 -465.00928 L-75.27936 -471.43716" />
<path d="M-59.16655 -446.88312 L-63.39273 -455.9462 L-67.61891 -465.00928 L-75.27936 -471.43716 L-82.939804 -477.86505 L-90.60025 -484.29294" />
<path d="M-90.60025 -484.29294 L-98.2607 -490.72083 L-107.91995 -493.30902" />
<path d="M-67.61891 -465.00928 L-67.61891 -475.00928" />
<path d="M-67.61891 -475.00928 L-67.61891 -485.00928 L-71.84509 -494.07236" />
<path d="M-50.714188 -428.75696 L-54.94037 -437.82004 L-59.16655 -446.88312 L-63.39273 -455.9462 L-67.61891 -465.00928 L-75.27936 -471.43716 L-82.939804 -477.86505 L-90.60025 -484.29294 L-98.2607 -490.72083 L-105.92114 -497.1487 L-113.58159 -503.5766 L-117.80777 -512.63965" />
<path d="M-117.80777 -512.63965 L-122.03395 -521.7027 L-129.6944 -528.13055" />
<path d="M-113.58159 -503.5766 L-121.242035 -510.0045" />
<path d="M-121.242035 -510.0045 L-128.90248 -516.4324 L-138.56174 -519.02057" />
<path d="M-113.58159 -503.5766 L-121.242035 -510.0045 L-128.90248 -516.4324 L-138.56174 -519.02057 L-148.221 -521.60876 L-157.88025 -524.19696" />
<path d="M-157.88025 -524.19696 L-167.5395 -526.78516 L-177.38759 -525.04865" />
<path d="M-128.90248 -516.4324 L-133.12866 -525.4954" />
<path d="M-133.12866 -525.4954 L-137.35484 -534.5585 L-145.01529 -540.9863" />
<path d="M-67.61891 -465.00928 L-67.61891 -475.00928 L-67.61891 -485.00928 L-63.39273 -494.07236" />
<path d="M-63.39273 -494.07236 L-59.16655 -503.13544 L-59.16655 -513.13544" />
<path d="M-67.61891 -485.00928 L-67.61891 -495.00928" />
<path d="M-67.61891 -495.00928 L-67.61891 -505.00928 L-71.84509 -514.0723" />
<path d="M-67.61891 -485.00928 L-67.61891 -495.00928 L-67.61891 -505.00928 L-71.84509 -514.0723 L-76.07127 -523.1354 L-80.297455 -532.1984" />
<path d="M-80.297455 -532.1984 L-84.523636 -541.2615 L-92.18408 -547.68933" />
<path d="M-67.61891 -505.00928 L-63.39273 -514.0723" />
<path d="M-63.39273 -514.0723 L-59.16655 -523.1354 L-59.16655 -533.1354" />
<path d="M0 -320 L4.226183 -329.06308 L8.452366 -338.12616 L12.678549 -347.18924 L16.904732 -356.25232 L24.565176 -362.6802 L32.22562 -369.1081 L41.88488 -371.6963" />
<path d="M41.88488 -371.6963 L51.54414 -374.2845 L59.204582 -380.71237" />
<path d="M32.22562 -369.1081 L39.886063 -375.53598" />
<path d="M39.886063 -375.53598 L47.54651 -381.96387 L51.77269 -391.02695" />
<path d="M32.22562 -369.1081 L39.886063 -375.53598 L47.54651 -381.96387 L51.77269 -391.02695 L55.99887 -400.09003 L60.22505 -409.1531" />
<path d="M60.22505 -409.1531 L64.45123 -418.2162 L64.45123 -428.2162" />
<path d="M47.54651 -381.96387 L57.20577 -384.55206" />
<path d="M57.20577 -384.55206 L66.86503 -387.14026 L74.525475 -393.56815" />
<path d="M16.904732 -356.25232 L21.130915 -365.3154 L25.357098 -374.37848 L33.01754 -380.80637" />
<path d="M33.01754 -380.80637 L40.677986 -387.23425 L44.904167 -396.29733" />
<path d="M25.357098 -374.37848 L29.58328 -383.44156" />
<path d="M29.58328 -383.44156 L33.809464 -392.50464 L33.809464 -402.50464" />
<path d="M25.357098 -374.37848 L29.58328 -383.44156 L33.809464 -392.50464 L33.809464 -402.50464 L33.809464 -412.50464 L33.809464 -422.50464" />
<path d="M33.809464 -422.50464 L33.809464 -432.50464 L29.58328 -441.56772" />
<path d="M33.809464 -392.50464 L41.46991 -398.93253" />
<path d="M41.46991 -398.93253 L49.130356 -405.3604 L53.356537 -414.4235" />
<path d="M16.904732 -356.25232 L21.130915 -365.3154 L25.357098 -374.37848 L29.58328 -383.44156 L33.809464 -392.50464 L33.809464 -402.50464 L33.809464 -412.50464 L33.809464 -422.50464 L33.809464 -432.50464 L33.809464 -442.50464 L33.809464 -452.50464 L38.035645 -461.56772" />
<path d="M38.035645 -461.56772 L42.261826 -470.6308 L42.261826 -480.6308" />
<path d="M33.809464 -452.50464 L33.809464 -462.50464" />
<path d="M33.809464 -462.50464 L33.809464 -472.50464 L29.58328 -481.56772" />
<path d="M33.809464 -452.50464 L33.809464 -462.50464 L33.809464 -472.50464 L29.58328 -481.56772 L25.357098 -490.6308 L21.130915 -499.69388" />
<path d="M21.130915 -499.69388 L16.904732 -508.75696 L9.2442875 -515.1848" />
<path d="M33.809464 -472.50464 L38.035645 -481.56772" />
<path d="M38.035645 -481.56772 L42.261826 -490.6308 L42.261826 -500.6308" />
<path d="M33.809464 -392.50464 L41.46991 -398.93253 L49.130356 -405.3604 L58.789616 -407.9486" />
<path d="M58.789616 -407.9486 L68.448875 -410.5368 L76.10932 -416.9647" />
<path d="M49.130356 -405.3604 L56.790802 -411.7883" />
<path d="M56.790802 -411.7883 L64.45125 -418.2162 L68.67743 -427.27927" />
<path d="M49.130356 -405.3604 L56.790802 -411.7883 L64.45125 -418.2162 L68.67743 -427.27927 L72.90361 -436.34235 L77.12979 -445.40543" />
<path d="M77.12979 -445.40543 L81.35597 -454.4685 L81.35597 -464.4685" />
<path d="M64.45125 -418.2162 L74.110504 -420.80438" />
<path d="M74.110504 -420.80438 L83.76976 -423.39258 L91.43021 -429.82047" />
<path d="M0 -160 L0 -170 L0 -180 L0 -190 L0 -200 L0 -210 L0 -220 L0 -230 L0 -240 L0 -250 L0 -260 L0 -270 L0 -280 L0 -290 L0 -300 L0 -310 L0 -320 L-4.226183 -329.06308 L-8.452366 -338.12616 L-12.678549 -347.18924 L-16.904732 -356.25232 L-21.130915 -365.3154 L-25.357098 -374.37848 L-29.58328 -383.44156 L-33.809464 -392.50464 L-38.035645 -401.56772 L-42.261826 -410.6308 L-46.488007 -419.69388 L-50.714188 -428.75696 L-54.94037 -437.82004 L-59.16655 -446.88312 L-63.39273 -455.9462 L-67.61891 -465.00928 L-71.84509 -474.07236 L-76.07127 -483.13544 L-80.297455 -492.19852 L-84.523636 -501.2616 L-88.74982 -510.32468 L-92.976 -519.38776 L-97.20218 -528.4508 L-101.42836 -537.51385 L-101.42836 -547.51385 L-101.42836 -557.51385 L-101.42836 -567.51385 L-101.42836 -577.51385 L-97.20218 -586.5769 L-92.976 -595.63995 L-85.31555 -602.0678" />
<path d="M-85.31555 -602.0678 L-77.655106 -608.49567 L-73.428925 -617.5587" />
<path d="M-92.976 -595.63995 L-88.74982 -604.703" />
<path d="M-88.74982 -604.703 L-84.523636 -613.76605 L-84.523636 -623.76605" />
<path d="M-92.976 -595.63995 L-88.74982 -604.703 L-84.523636 -613.76605 L-84.523636 -623.76605 L-84.523636 -633.76605 L-84.523636 -643.76605" />
<path d="M-84.523636 -643.76605 L-84.523636 -653.76605 L-88.74982 -662.8291" />
<path d="M-84.523636 -613.76605 L-76.86319 -620.1939" />
<path d="M-76.86319 -620.1939 L-69.20274 -626.62177 L-64.97656 -635.6848" />
<path d="M-101.42836 -577.51385 L-101.42836 -587.51385 L-101.42836 -597.51385 L-97.20218 -606.5769" />
<path d="M-97.20218 -606.5769 L-92.976 -615.63995 L-92.976 -625.63995" />
<path d="M-101.42836 -597.51385 L-101.42836 -607.51385" />
<path d="M-101.42836 -607.51385 L-101.42836 -617.51385 L-105.65454 -626.5769" />
<path d="M-101.42836 -597.51385 L-101.42836 -607.51385 L-101.42836 -617.51385 L-105.65454 -626.5769 L-109.88072 -635.63995 L-114.1069 -644.703" />
<path d="M-114.1069 -644.703 L-118.333084 -653.76605 L-125.99353 -660.1939" />
<path d="M-101.42836 -617.51385 L-97.20218 -626.5769" />
<path d="M-97.20218 -626.5769 L-92.976 -635.63995 L-92.976 -645.63995" />
<path d="M-101.42836 -577.51385 L-101.42836 -587.51385 L-101.42836 -597.51385 L-101.42836 -607.51385 L-101.42836 -617.51385 L-105.65454 -626.5769 L-109.88072 -635.63995 L-114.1069 -644.703 L-118.333084 -653.76605 L-122.559265 -662.8291 L-126.785446 -671.89215 L-126.785446 -681.89215" />
<path d="M-126.785446 -681.89215 L-126.785446 -691.89215 L-131.01163 -700.9552" />
<path d="M-126.785446 -671.89215 L-131.01163 -680.9552" />
<path d="M-131.01163 -680.9552 L-135.23781 -690.01825 L-142.89825 -696.4461" />
<path d="M-126.785446 -671.89215 L-131.01163 -680.9552 L-135.23781 -690.01825 L-142.89825 -696.4461 L-150.5587 -702.87396 L-158.21915 -709.3018" />
<path d="M-158.21915 -709.3018 L-165.8796 -715.7297 L-175.53885 -718.3179" />
<path d="M-135.23781 -690.01825 L-135.23781 -700.01825" />
<path d="M-135.23781 -700.01825 L-135.23781 -710.01825 L-139.46399 -719.0813" />
<path d="M-101.42836 -617.51385 L-97.20218 -626.5769 L-92.976 -635.63995 L-85.31555 -642.0678" />
<path d="M-85.31555 -642.0678 L-77.655106 -648.49567 L-73.428925 -657.5587" />
<path d="M-92.976 -635.63995 L-88.74982 -644.703" />
<path d="M-88.74982 -644.703 L-84.523636 -653.76605 L-84.523636 -663.76605" />
<path d="M-92.976 -635.63995 L-88.74982 -644.703 L-84.523636 -653.76605 L-84.523636 -663.76605 L-84.523636 -673.76605 L-84.523636 -683.76605" />
<path d="M-84.523636 -683.76605 L-84.523636 -693.76605 L-88.74982 -702.8291" />
<path d="M-84.523636 -653.76605 L-76.86319 -660.1939" />
<path d="M-76.86319 -660.1939 L-69.20274 -666.62177 L-64.97656 -675.6848" />
<path d="M-101.42836 -537.51385 L-105.65454 -546.5769 L-109.88072 -555.63995 L-114.1069 -564.703 L-118.333084 -573.76605 L-118.333084 -583.76605 L-118.333084 -593.76605 L-114.1069 -602.8291" />
<path d="M-114.1069 -602.8291 L-109.88072 -611.89215 L-109.88072 -621.89215" />
<path d="M-118.333084 -593.76605 L-118.333084 -603.76605" />
<path d="M-118.333084 -603.76605 L-118.333084 -613.76605 L-122.559265 -622.8291" />
<path d="M-118.333084 -593.76605 L-118.333084 -603.76605 L-118.333084 -613.76605 L-122.559265 -622.8291 L-126.785446 -631.89215 L-131.01163 -640.9552" />
<path d="M-131.01163 -640.9552 L-135.23781 -650.01825 L-142.89825 -656.4461" />
<path d="M-118.333084 -613.76605 L-114.1069 -622.8291" />
<path d="M-114.1069 -622.8291 L-109.88072 -631.89215 L-109.88072 -641.89215" />
<path d="M-118.333084 -573.76605 L-122.559265 -582.8291 L-126.785446 -591.89215 L-126.785446 -601.89215" />
<path d="M-126.785446 -601.89215 L-126.785446 -611.89215 L-131.01163 -620.9552" />
<path d="M-126.785446 -591.89215 L-131.01163 -600.9552" />
<path d="M-131.01163 -600.9552 L-135.23781 -610.01825 L-142.89825 -616.4461" />
<path d="M-126.785446 -591.89215 L-131.01163 -600.9552 L-135.23781 -610.01825 L-142.89825 -616.4461 L-150.5587 -622.87396 L-158.21915 -629.3018" />
<path d="M-158.21915 -629.3018 L-165.8796 -635.7297 L-175.53885 -638.3179" />
<path d="M-135.23781 -610.01825 L-135.23781 -620.01825" />
<path d="M-135.23781 -620.01825 L-135.23781 -630.01825 L-139.46399 -639.0813" />
<path d="M-118.333084 -573.76605 L-122.559265 -582.8291 L-126.785446 -591.89215 L-131.01163 -600.9552 L-135.23781 -610.01825 L-142.89825 -616.4461 L-150.5587 -622.87396 L-158.21915 -629.3018 L-165.8796 -635.7297 L-173.54004 -642.15753 L-181.20049 -648.5854 L-185.42667 -657.64844" />
<path d="M-185.42667 -657.64844 L-189.65285 -666.7115 L-197.3133 -673.13934" />
<path d="M-181.20049 -648.5854 L-188.86093 -655.01324" />
<path d="M-188.86093 -655.01324 L-196.52138 -661.4411 L-206.18063 -664.0293" />
<path d="M-181.20049 -648.5854 L-188.86093 -655.01324 L-196.52138 -661.4411 L-206.18063 -664.0293 L-215.83989 -666.6175 L-225.49915 -669.2057" />
<path d="M-225.49915 -669.2057 L-235.1584 -671.7939 L-245.00648 -670.0574" />
<path d="M-196.52138 -661.4411 L-200.74756 -670.50415" />
<path d="M-200.74756 -670.50415 L-204.97374 -679.5672 L-212.63419 -685.99506" />
<path d="M-135.23781 -610.01825 L-135.23781 -620.01825 L-135.23781 -630.01825 L-131.01163 -639.0813" />
<path d="M-131.01163 -639.0813 L-126.785446 -648.14435 L-126.785446 -658.14435" />
<path d="M-135.23781 -630.01825 L-135.23781 -640.01825" />
<path d="M-135.23781 -640.01825 L-135.23781 -650.01825 L-139.46399 -659.0813" />
<path d="M-135.23781 -630.01825 L-135.23781 -640.01825 L-135.23781 -650.01825 L-139.46399 -659.0813 L-143.69017 -668.14435 L-147.91635 -677.2074" />
<path d="M-147.91635 -677.2074 L-152.14253 -686.27045 L-159.80298 -692.6983" />
<path d="M-135.23781 -650.01825 L-131.01163 -659.0813" />
<path d="M-131.01163 -659.0813 L-126.785446 -668.14435 L-126.785446 -678.14435" />
<path d="M-101.42836 -537.51385 L-105.65454 -546.5769 L-109.88072 -555.63995 L-114.1069 -564.703 L-118.333084 -573.76605 L-122.559265 -582.8291 L-126.785446 -591.89215 L-131.01163 -600.9552 L-135.23781 -610.01825 L-142.89825 -616.4461 L-150.5587 -622.87396 L-158.21915 -629.3018 L-165.8796 -635.7297 L-173.54004 -642.15753 L-181.20049 -648.5854 L-188.86093 -655.01324 L-196.52138 -661.4411 L-204.18182 -667.86896 L-211.84227 -674.2968 L-219.50272 -680.7247 L-227.16316 -687.1525 L-231.38934 -696.2156 L-235.61552 -705.2786 L-235.61552 -715.2786" />
<path d="M-235.61552 -715.2786 L-235.61552 -725.2786 L-239.8417 -734.3417" />
<path d="M-235.61552 -705.2786 L-239.8417 -714.3417" />
<path d="M-239.8417 -714.3417 L-244.06789 -723.4047 L-251.72833 -729.8326" />
<path d="M-235.61552 -705.2786 L-239.8417 -714.3417 L-244.06789 -723.4047 L-251.72833 -729.8326 L-259.38876 -736.26044 L-267.0492 -742.6883" />
<path d="M-267.0492 -742.6883 L-274.70963 -749.11615 L-284.3689 -751.70435" />
<path d="M-244.06789 -723.4047 L-244.06789 -733.4047" />
<path d="M-244.06789 -733.4047 L-244.06789 -743.4047 L-248.29407 -752.4678" />
<path d="M-227.16316 -687.1525 L-234.82361 -693.5804 L-242.48405 -700.00824 L-246.71024 -709.0713" />
<path d="M-246.71024 -709.0713 L-250.93642 -718.13434 L-258.59686 -724.5622" />
<path d="M-242.48405 -700.00824 L-250.1445 -706.4361" />
<path d="M-250.1445 -706.4361 L-257.80493 -712.86395 L-267.4642 -715.45215" />
<path d="M-242.48405 -700.00824 L-250.1445 -706.4361 L-257.80493 -712.86395 L-267.4642 -715.45215 L-277.12347 -718.04034 L-286.78275 -720.62854" />
<path d="M-286.78275 -720.62854 L-296.44202 -723.21674 L-306.2901 -721.4802" />
<path d="M-257.80493 -712.86395 L-262.03113 -721.927" />
<path d="M-262.03113 -721.927 L-266.25732 -730.99005 L-273.91776 -737.4179" />
<path d="M-227.16316 -687.1525 L-234.82361 -693.5804 L-242.48405 -700.00824 L-250.1445 -706.4361 L-257.80493 -712.86395 L-267.4642 -715.45215 L-277.12347 -718.04034 L-286.78275 -720.62854 L-296.44202 -723.21674 L-306.1013 -725.80493 L-315.76056 -728.3931 L-323.421 -734.821" />
<path d="M-323.421 -734.821 L-331.08142 -741.24884 L-340.7407 -743.83704" />
<path d="M-315.76056 -728.3931 L-325.41983 -730.9813" />
<path d="M-325.41983 -730.9813 L-335.0791 -733.5695 L-344.9272 -731.833" />
<path d="M-315.76056 -728.3931 L-325.41983 -730.9813 L-335.0791 -733.5695 L-344.9272 -731.833 L-354.77527 -730.0965 L-364.62335 -728.36" />
<path d="M-364.62335 -728.36 L-374.47144 -726.6235 L-382.66296 -720.8877" />
<path d="M-335.0791 -733.5695 L-342.73953 -739.9974" />
<path d="M-342.73953 -739.9974 L-350.39996 -746.42523 L-360.05923 -749.0134" />
<path d="M-257.80493 -712.86395 L-262.03113 -721.927 L-266.25732 -730.99005 L-266.25732 -740.99005" />
<path d="M-266.25732 -740.99005 L-266.25732 -750.99005 L-270.48352 -760.0531" />
<path d="M-266.25732 -730.99005 L-270.48352 -740.0531" />
<path d="M-270.48352 -740.0531 L-274.70972 -749.11615 L-282.37015 -755.544" />
<path d="M-266.25732 -730.99005 L-270.48352 -740.0531 L-274.70972 -749.11615 L-282.37015 -755.544 L-290.03058 -761.97186 L-297.691 -768.3997" />
<path d="M-297.691 -768.3997 L-305.35144 -774.8276 L-315.0107 -777.4158" />
<path d="M-274.70972 -749.11615 L-274.70972 -759.11615" />
<path d="M-274.70972 -759.11615 L-274.70972 -769.11615 L-278.9359 -778.1792" />
<path d="M-135.23781 -610.01825 L-135.23781 -620.01825 L-135.23781 -630.01825 L-135.23781 -640.01825 L-135.23781 -650.01825 L-131.01163 -659.0813 L-126.785446 -668.14435 L-119.125 -674.5722" />
<path d="M-119.125 -674.5722 L-111.464554 -681.00006 L-107.23837 -690.0631" />
<path d="M-126.785446 -668.14435 L-122.559265 -677.2074" />
<path d="M-122.559265 -677.2074 L-118.333084 -686.27045 L-118.333084 -696.27045" />
<path d="M-126.785446 -668.14435 L-122.559265 -677.2074 L-118.333084 -686.27045 L-118.333084 -696.27045 L-118.333084 -706.27045 L-118.333084 -716.27045" />
<path d="M-118.333084 -716.27045 L-118.333084 -726.27045 L-122.559265 -735.3335" />
<path d="M-118.333084 -686.27045 L-110.67264 -692.6983" />
<path d="M-110.67264 -692.6983 L-103.01219 -699.12616 L-98.78601 -708.1892" />
<path d="M-135.23781 -650.01825 L-135.23781 -660.01825 L-135.23781 -670.01825 L-131.01163 -679.0813" />
<path d="M-131.01163 -679.0813 L-126.785446 -688.14435 L-126.785446 -698.14435" />
<path d="M-135.23781 -670.01825 L-135.23781 -680.01825" />
<path d="M-135.23781 -680.01825 L-135.23781 -690.01825 L-139.46399 -699.0813" />
<path d="M-135.23781 -670.01825 L-135.23781 -680.01825 L-135.23781 -690.01825 L-139.46399 -699.0813 L-143.69017 -708.14435 L-147.91635 -717.2074" />
<path d="M-147.91635 -717.2074 L-152.14253 -726.27045 L-159.80298 -732.6983" />
<path d="M-135.23781 -690.01825 L-131.01163 -699.0813" />
<path d="M-131.01163 -699.0813 L-126.785446 -708.14435 L-126.785446 -718.14435" />
<path d="M-135.23781 -650.01825 L-135.23781 -660.01825 L-135.23781 -670.01825 L-135.23781 -680.01825 L-135.23781 -690.01825 L-139.46399 -699.0813 L-143.69017 -708.14435 L-147.91635 -717.2074 L-152.14253 -726.27045 L-156.36871 -735.3335 L-160.5949 -744.39655 L-160.5949 -754.39655" />
<path d="M-160.5949 -754.39655 L-160.5949 -764.39655 L-164.82108 -773.4596" />
<path d="M-160.5949 -744.39655 L-164.82108 -753.4596" />
<path d="M-164.82108 -753.4596 L-169.04726 -762.52264 L-176.7077 -768.9505" />
<path d="M-160.5949 -744.39655 L-164.82108 -753.4596 L-169.04726 -762.52264 L-176.7077 -768.9505 L-184.36815 -775.37836 L-192.0286 -781.8062" />
<path d="M-192.0286 -781.8062 L-199.68904 -788.2341 L-209.3483 -790.82227" />
<path d="M-169.04726 -762.52264 L-169.04726 -772.52264" />
<path d="M-169.04726 -772.52264 L-169.04726 -782.52264 L-173.27344 -791.5857" />
<path d="M-135.23781 -690.01825 L-131.01163 -699.0813 L-126.785446 -708.14435 L-119.125 -714.5722" />
<path d="M-119.125 -714.5722 L-111.464554 -721.00006 L-107.23837 -730.0631" />
<path d="M-126.785446 -708.14435 L-122.559265 -717.2074" />
<path d="M-122.559265 -717.2074 L-118.333084 -726.27045 L-118.333084 -736.27045" />
<path d="M-126.785446 -708.14435 L-122.559265 -717.2074 L-118.333084 -726.27045 L-118.333084 -736.27045 L-118.333084 -746.27045 L-118.333084 -756.27045" />
<path d="M-118.333084 -756.27045 L-118.333084 -766.27045 L-122.559265 -775.3335" />
<path d="M-118.333084 -726.27045 L-110.67264 -732.6983" />
<path d="M-110.67264 -732.6983 L-103.01219 -739.12616 L-98.78601 -748.1892" />
<path d="M0 -320 L4.226183 -329.06308 L8.452366 -338.12616 L12.678549 -347.18924 L16.904732 -356.25232 L21.130915 -365.3154 L25.357098 -374.37848 L29.58328 -383.44156 L33.809464 -392.50464 L41.46991 -398.93253 L49.130356 -405.3604 L56.790802 -411.7883 L64.45125 -418.2162 L74.110504 -420.80438 L83.76976 -423.39258 L93.617836 -421.6561" />
<path d="M93.617836 -421.6561 L103.46591 -419.91962 L113.12517 -422.5078" />
<path d="M83.76976 -423.39258 L93.429016 -425.98077" />
<path d="M93.429016 -425.98077 L103.08827 -428.56897 L110.74872 -434.99686" />
<path d="M83.76976 -423.39258 L93.429016 -425.98077 L103.08827 -428.56897 L110.74872 -434.99686 L118.409164 -441.42474 L126.06961 -447.85263" />
<path d="M126.06961 -447.85263 L133.73006 -454.28052 L137.95624 -463.3436" />
<path d="M103.08827 -428.56897 L112.93635 -426.8325" />
<path d="M112.93635 -426.8325 L122.784424 -425.096 L132.44368 -427.6842" />
<path d="M64.45125 -418.2162 L72.111694 -424.64407 L79.77214 -431.07196 L89.4314 -433.66016" />
<path d="M89.4314 -433.66016 L99.09065 -436.24835 L106.7511 -442.67624" />
<path d="M79.77214 -431.07196 L87.43259 -437.49985" />
<path d="M87.43259 -437.49985 L95.09303 -443.92773 L99.319214 -452.9908" />
<path d="M79.77214 -431.07196 L87.43259 -437.49985 L95.09303 -443.92773 L99.319214 -452.9908 L103.545395 -462.0539 L107.771576 -471.11697" />
<path d="M107.771576 -471.11697 L111.99776 -480.18005 L111.99776 -490.18005" />
<path d="M95.09303 -443.92773 L104.75229 -446.51593" />
<path d="M104.75229 -446.51593 L114.411545 -449.10413 L122.07199 -455.532" />
<path d="M64.45125 -418.2162 L72.111694 -424.64407 L79.77214 -431.07196 L87.43259 -437.49985 L95.09303 -443.92773 L99.319214 -452.9908 L103.545395 -462.0539 L107.771576 -471.11697 L111.99776 -480.18005 L116.22394 -489.24313 L120.45012 -498.3062 L128.11057 -504.7341" />
<path d="M128.11057 -504.7341 L135.77101 -511.162 L139.9972 -520.22504" />
<path d="M120.45012 -498.3062 L124.6763 -507.3693" />
<path d="M124.6763 -507.3693 L128.90248 -516.4324 L128.90248 -526.4324" />
<path d="M120.45012 -498.3062 L124.6763 -507.3693 L128.90248 -516.4324 L128.90248 -526.4324 L128.90248 -536.4324 L128.90248 -546.4324" />
<path d="M128.90248 -546.4324 L128.90248 -556.4324 L124.6763 -565.4954" />
<path d="M128.90248 -516.4324 L136.56293 -522.8602" />
<path d="M136.56293 -522.8602 L144.22337 -529.2881 L148.44955 -538.35114" />
<path d="M95.09303 -443.92773 L104.75229 -446.51593 L114.411545 -449.10413 L124.25962 -447.36765" />
<path d="M124.25962 -447.36765 L134.1077 -445.63116 L143.76695 -448.21936" />
<path d="M114.411545 -449.10413 L124.0708 -451.69232" />
<path d="M124.0708 -451.69232 L133.73006 -454.28052 L141.3905 -460.7084" />
<path d="M114.411545 -449.10413 L124.0708 -451.69232 L133.73006 -454.28052 L141.3905 -460.7084 L149.05095 -467.1363 L156.7114 -473.56418" />
<path d="M156.7114 -473.56418 L164.37184 -479.99207 L168.59802 -489.05515" />
<path d="M133.73006 -454.28052 L143.57814 -452.54404" />
<path d="M143.57814 -452.54404 L153.42622 -450.80756 L163.08548 -453.39575" />
<path d="M33.809464 -392.50464 L38.035645 -401.56772 L42.261826 -410.6308 L46.488007 -419.69388 L50.714188 -428.75696 L58.374634 -435.18484 L66.03508 -441.61273 L75.694336 -444.20093" />
<path d="M75.694336 -444.20093 L85.35359 -446.78912 L93.01404 -453.217" />
<path d="M66.03508 -441.61273 L73.695526 -448.04062" />
<path d="M73.695526 -448.04062 L81.35597 -454.4685 L85.58215 -463.5316" />
<path d="M66.03508 -441.61273 L73.695526 -448.04062 L81.35597 -454.4685 L85.58215 -463.5316 L89.808334 -472.59467 L94.034515 -481.65775" />
<path d="M94.034515 -481.65775 L98.2607 -490.72083 L98.2607 -500.72083" />
<path d="M81.35597 -454.4685 L91.01523 -457.0567" />
<path d="M91.01523 -457.0567 L100.674484 -459.6449 L108.33493 -466.07278" />
<path d="M50.714188 -428.75696 L54.94037 -437.82004 L59.16655 -446.88312 L66.826996 -453.311" />
<path d="M66.826996 -453.311 L74.48744 -459.7389 L78.71362 -468.80197" />
<path d="M59.16655 -446.88312 L63.39273 -455.9462" />
<path d="M63.39273 -455.9462 L67.61891 -465.00928 L67.61891 -475.00928" />
<path d="M59.16655 -446.88312 L63.39273 -455.9462 L67.61891 -465.00928 L67.61891 -475.00928 L67.61891 -485.00928 L67.61891 -495.00928" />
<path d="M67.61891 -495.00928 L67.61891 -505.00928 L63.39273 -514.0723" />
<path d="M67.61891 -465.00928 L75.27936 -471.43716" />
<path d="M75.27936 -471.43716 L82.939804 -477.86505 L87.165985 -486.92813" />
<path d="M50.714188 -428.75696 L54.94037 -437.82004 L59.16655 -446.88312 L63.39273 -455.9462 L67.61891 -465.00928 L67.61891 -475.00928 L67.61891 -485.00928 L67.61891 -495.00928 L67.61891 -505.00928 L67.61891 -515.0093 L67.61891 -525.0093 L71.84509 -534.0723" />
<path d="M71.84509 -534.0723 L76.07127 -543.1354 L76.07127 -553.1354" />
<path d="M67.61891 -525.0093 L67.61891 -535.0093" />
<path d="M67.61891 -535.0093 L67.61891 -545.0093 L63.39273 -554.0723" />
<path d="M67.61891 -525.0093 L67.61891 -535.0093 L67.61891 -545.0093 L63.39273 -554.0723 L59.16655 -563.1354 L54.94037 -572.1984" />
<path d="M54.94037 -572.1984 L50.714188 -581.2615 L43.05374 -587.68933" />
<path d="M67.61891 -545.0093 L71.84509 -554.0723" />
<path d="M71.84509 -554.0723 L76.07127 -563.1354 L76.07127 -573.1354" />
<path d="M67.61891 -465.00928 L75.27936 -471.43716 L82.939804 -477.86505 L92.59906 -480.45325" />
<path d="M92.59906 -480.45325 L102.258316 -483.04144 L109.91876 -489.46933" />
<path d="M82.939804 -477.86505 L90.60025 -484.29294" />
<path d="M90.60025 -484.29294 L98.2607 -490.72083 L102.48688 -499.7839" />
<path d="M82.939804 -477.86505 L90.60025 -484.29294 L98.2607 -490.72083 L102.48688 -499.7839 L106.71306 -508.847 L110.93924 -517.91003" />
<path d="M110.93924 -517.91003 L115.16542 -526.9731 L115.16542 -536.9731" />
<path d="M98.2607 -490.72083 L107.91995 -493.30902" />
<path d="M107.91995 -493.30902 L117.57921 -495.89722 L125.239655 -502.3251" />
<path d="M33.809464 -392.50464 L38.035645 -401.56772 L42.261826 -410.6308 L46.488007 -419.69388 L50.714188 -428.75696 L54.94037 -437.82004 L59.16655 -446.88312 L63.39273 -455.9462 L67.61891 -465.00928 L67.61891 -475.00928 L67.61891 -485.00928 L67.61891 -495.00928 L67.61891 -505.00928 L67.61891 -515.0093 L67.61891 -525.0093 L67.61891 -535.0093 L67.61891 -545.0093 L67.61891 -555.0093 L67.61891 -565.0093 L67.61891 -575.0093 L67.61891 -585.0093 L71.84509 -594.0723 L76.07127 -603.1354 L83.73172 -609.56323" />
<path d="M83.73172 -609.56323 L91.392166 -615.9911 L95.61835 -625.05414" />
<path d="M76.07127 -603.1354 L80.297455 -612.1984" />
<path d="M80.297455 -612.1984 L84.523636 -621.2615 L84.523636 -631.2615" />
<path d="M76.07127 -603.1354 L80.297455 -612.1984 L84.523636 -621.2615 L84.523636 -631.2615 L84.523636 -641.2615 L84.523636 -651.2615" />
<path d="M84.523636 -651.2615 L84.523636 -661.2615 L80.297455 -670.3245" />
<path d="M84.523636 -621.2615 L92.18408 -627.68933" />
<path d="M92.18408 -627.68933 L99.84453 -634.1172 L104.07071 -643.18024" />
<path d="M67.61891 -585.0093 L67.61891 -595.0093 L67.61891 -605.0093 L71.84509 -614.0723" />
<path d="M71.84509 -614.0723 L76.07127 -623.1354 L76.07127 -633.1354" />
<path d="M67.61891 -605.0093 L67.61891 -615.0093" />
<path d="M67.61891 -615.0093 L67.61891 -625.0093 L63.39273 -634.0723" />
<path d="M67.61891 -605.0093 L67.61891 -615.0093 L67.61891 -625.0093 L63.39273 -634.0723 L59.16655 -643.1354 L54.94037 -652.1984" />
<path d="M54.94037 -652.1984 L50.714188 -661.2615 L43.05374 -667.68933" />
<path d="M67.61891 -625.0093 L71.84509 -634.0723" />
<path d="M71.84509 -634.0723 L76.07127 -643.1354 L76.07127 -653.1354" />
<path d="M67.61891 -585.0093 L67.61891 -595.0093 L67.61891 -605.0093 L67.61891 -615.0093 L67.61891 -625.0093 L63.39273 -634.0723 L59.16655 -643.1354 L54.94037 -652.1984 L50.714188 -661.2615 L46.488007 -670.3245 L42.261826 -679.3876 L42.261826 -689.3876" />
<path d="M42.261826 -689.3876 L42.261826 -699.3876 L38.035645 -708.4506" />
<path d="M42.261826 -679.3876 L38.035645 -688.4506" />
<path d="M38.035645 -688.4506 L33.809464 -697.5137 L26.14902 -703.9415" />
<path d="M42.261826 -679.3876 L38.035645 -688.4506 L33.809464 -697.5137 L26.14902 -703.9415 L18.488575 -710.3694 L10.828131 -716.79724" />
<path d="M10.828131 -716.79724 L3.1676865 -723.2251 L-6.4915724 -725.8133" />
<path d="M33.809464 -697.5137 L33.809464 -707.5137" />
<path d="M33.809464 -707.5137 L33.809464 -717.5137 L29.58328 -726.5767" />
<path d="M67.61891 -625.0093 L71.84509 -634.0723 L76.07127 -643.1354 L83.73172 -649.56323" />
<path d="M83.73172 -649.56323 L91.392166 -655.9911 L95.61835 -665.05414" />
<path d="M76.07127 -643.1354 L80.297455 -652.1984" />
<path d="M80.297455 -652.1984 L84.523636 -661.2615 L84.523636 -671.2615" />
<path d="M76.07127 -643.1354 L80.297455 -652.1984 L84.523636 -661.2615 L84.523636 -671.2615 L84.523636 -681.2615 L84.523636 -691.2615" />
<path d="M84.523636 -691.2615 L84.523636 -701.2615 L80.297455 -710.3245" />
<path d="M84.523636 -661.2615 L92.18408 -667.68933" />
<path d="M92.18408 -667.68933 L99.84453 -674.1172 L104.07071 -683.18024" />
<path d="M67.61891 -465.00928 L75.27936 -471.43716 L82.939804 -477.86505 L90.60025 -484.29294 L98.2607 -490.72083 L107.91995 -493.30902 L117.57921 -495.89722 L127.427284 -494.16074" />
<path d="M127.427284 -494.16074 L137.27536 -492.42426 L146.93462 -495.01245" />
<path d="M117.57921 -495.89722 L127.238464 -498.4854" />
<path d="M127.238464 -498.4854 L136.89772 -501.0736 L144.55817 -507.5015" />
<path d="M117.57921 -495.89722 L127.238464 -498.4854 L136.89772 -501.0736 L144.55817 -507.5015 L152.21861 -513.9294 L159.87906 -520.35724" />
<path d="M159.87906 -520.35724 L167.5395 -526.7851 L171.76569 -535.84814" />
<path d="M136.89772 -501.0736 L146.7458 -499.33713" />
<path d="M146.7458 -499.33713 L156.59389 -497.60065 L166.25314 -500.18884" />
<path d="M98.2607 -490.72083 L105.92114 -497.1487 L113.58159 -503.5766 L123.240845 -506.1648" />
<path d="M123.240845 -506.1648 L132.9001 -508.753 L140.56055 -515.18085" />
<path d="M113.58159 -503.5766 L121.242035 -510.0045" />
<path d="M121.242035 -510.0045 L128.90248 -516.4324 L133.12866 -525.4954" />
<path d="M113.58159 -503.5766 L121.242035 -510.0045 L128.90248 -516.4324 L133.12866 -525.4954 L137.35484 -534.5585 L141.58102 -543.6215" />
<path d="M141.58102 -543.6215 L145.8072 -552.6846 L145.8072 -562.6846" />
<path d="M128.90248 -516.4324 L138.56174 -519.02057" />
<path d="M138.56174 -519.02057 L148.221 -521.60876 L155.88144 -528.0366" />
<path d="M98.2607 -490.72083 L105.92114 -497.1487 L113.58159 -503.5766 L121.242035 -510.0045 L128.90248 -516.4324 L133.12866 -525.4954 L137.35484 -534.5585 L141.58102 -543.6215 L145.8072 -552.6846 L150.03339 -561.7476 L154.25957 -570.81067 L161.92001 -577.2385" />
<path d="M161.92001 -577.2385 L169.58046 -583.6664 L173.80664 -592.72943" />
<path d="M154.25957 -570.81067 L158.48575 -579.8737" />
<path d="M158.48575 -579.8737 L162.71193 -588.93677 L162.71193 -598.93677" />
<path d="M154.25957 -570.81067 L158.48575 -579.8737 L162.71193 -588.93677 L162.71193 -598.93677 L162.71193 -608.93677 L162.71193 -618.93677" />
<path d="M162.71193 -618.93677 L162.71193 -628.93677 L158.48575 -637.9998" />
<path d="M162.71193 -588.93677 L170.37238 -595.3646" />
<path d="M170.37238 -595.3646 L178.03282 -601.7925 L182.259 -610.8555" />
<path d="M128.90248 -516.4324 L138.56174 -519.02057 L148.221 -521.60876 L158.06908 -519.87225" />
<path d="M158.06908 -519.87225 L167.91716 -518.13574 L177.57642 -520.72394" />
<path d="M148.221 -521.60876 L157.88025 -524.19696" />
<path d="M157.88025 -524.19696 L167.5395 -526.78516 L175.19995 -533.213" />
<path d="M148.221 -521.60876 L157.88025 -524.19696 L167.5395 -526.78516 L175.19995 -533.213 L182.8604 -539.64087 L190.52084 -546.0687" />
<path d="M190.52084 -546.0687 L198.18129 -552.4966 L202.40747 -561.55963" />
<path d="M167.5395 -526.78516 L177.38759 -525.04865" />
<path d="M177.38759 -525.04865 L187.23567 -523.31213 L196.89493 -525.9003" />
<path d="M187.23567 -523.31213" />
</g>
</svg>
