<?xml version="1.0" encoding="UTF-8"?>
                <svg xmlns="http://www.w3.org/2000/svg"
                version="1.1" baseProfile="full"
                viewBox="-23.333334 -256.66666 279.99997 280">
<g stroke="black" stroke-width="0.28" fill="none">
<path d="M0 0 L33.333332 0.0000014570462 L33.333332 -33.333332 L0 -33.333332 L0 -66.666664 L0 -100 L33.333332 -100 L33.33333 -66.66667 L66.66666 -66.66667 L66.66666 -100 L99.999985 -100 L99.999985 -66.66667 L99.999985 -33.33334 L66.66666 -33.33334 L66.66666 -0.0000076293945 L99.999985 -0.0000061723485 L133.33331 -0.0000047153026 L133.33331 -33.333336 L166.66664 -33.333336 L166.66664 -0.0000038146973 L199.99997 -0.000002357651 L233.3333 -0.00000090060485 L233.3333 -33.333332 L199.99997 -33.333332 L199.99997 -66.666664 L233.3333 -66.666664 L233.3333 -100 L199.99997 -100 L166.66664 -100 L166.66664 -66.66667 L133.33331 -66.66667 L133.33331 -100 L133.33331 -133.33333 L133.33331 -166.66666 L166.66664 -166.66666 L166.66664 -133.33333 L199.99997 -133.33333 L233.3333 -133.33333 L233.3333 -166.66666 L199.99997 -166.66666 L199.99997 -199.99998 L233.3333 -199.99998 L233.3333 -233.33331 L199.99997 -233.33331 L166.66664 -233.33331 L166.66664 -199.99998 L133.33331 -199.99998 L133.33331 -233.33331 L99.999985 -233.33331 L66.66666 -233.33331 L66.66666 -199.99998 L99.999985 -199.99998 L99.999985 -166.66666 L99.999985 -133.33333 L66.66666 -133.33333 L66.66666 -166.66666 L33.333324 -166.66666 L33.33333 -133.33333 L-0.0000038146973 -133.33333 L-0.0000038146973 -166.66666 L-0.0000038146973 -199.99998 L33.33333 -199.99998 L33.33333 -233.33331 L-0.0000038146973 -233.33331" />
</g>
</svg>
