<?xml version="1.0" encoding="UTF-8"?>
                <svg xmlns="http://www.w3.org/2000/svg"
                version="1.1" baseProfile="full"
                viewBox="-352 -26.84678 384 322.16138">
<g stroke="black" stroke-width="0.384" fill="none">
<path d="M0 0 L-4.999998 8.660255 L-14.999998 8.660255 L-19.999998 0.0000019073486 L-29.999998 0.0000023444625 L-34.999996 8.660257 L-29.999994 17.32051 L-19.999994 17.32051 L-14.999992 25.980762 L-19.99999 34.641018 L-29.99999 34.641018 L-34.99999 43.301273 L-29.999987 51.961525 L-34.999985 60.62178 L-44.999985 60.62178 L-49.999985 51.961525 L-44.999985 43.30127 L-49.999985 34.641014 L-59.999985 34.641014 L-64.999985 25.98076 L-59.999985 17.320507 L-49.999985 17.320507 L-44.999985 8.660254 L-49.999985 0 L-59.999985 0.0000004371139 L-64.999985 8.660255 L-74.999985 8.660255 L-79.999985 0.0000019073486 L-89.999985 0.0000023444625 L-94.999985 8.660257 L-89.999985 17.32051 L-94.999985 25.980766 L-104.999985 25.980766 L-109.999985 17.320513 L-104.999985 8.660259 L-109.999985 0.000005722046 L-119.999985 0.00000615916 L-124.999985 8.660261 L-134.99998 8.660261 L-139.99998 0.0000076293945 L-149.99998 0.000008066509 L-154.99998 8.660263 L-149.99998 17.320515 L-139.99998 17.320515 L-134.99998 25.980766 L-139.99998 34.64102 L-134.99998 43.301273 L-124.999985 43.301273 L-119.999985 34.641018 L-109.999985 34.641018 L-104.999985 43.30127 L-109.999985 51.961525 L-119.999985 51.961525 L-124.999985 60.62178 L-119.999985 69.282036 L-109.999985 69.282036 L-104.999985 77.94229 L-109.999985 86.60255 L-104.999985 95.2628 L-94.999985 95.2628 L-89.999985 86.60255 L-94.99999 77.94229 L-89.99999 69.282036 L-79.99999 69.282036 L-74.99999 77.94229 L-64.99999 77.94229 L-59.999996 69.282036 L-49.999996 69.282036 L-44.999992 77.94229 L-49.999992 86.60255 L-59.999992 86.60255 L-64.99999 95.2628 L-59.999992 103.92306 L-64.99999 112.58331 L-74.99999 112.58331 L-79.99999 103.92306 L-89.99999 103.92306 L-94.99999 112.58331 L-89.99999 121.24357 L-79.99999 121.24357 L-74.99999 129.90382 L-79.99999 138.56409 L-89.99999 138.56409 L-94.99999 147.22433 L-89.99999 155.88458 L-94.99999 164.54483 L-104.99999 164.54483 L-109.99999 155.88458 L-104.99999 147.22433 L-109.99999 138.56409 L-119.99999 138.56409 L-124.99999 147.22433 L-135 147.22433 L-140 138.56409 L-150 138.56409 L-155 147.22433 L-150 155.88458 L-140 155.88458 L-135 164.54483 L-140 173.20508 L-135 181.86533 L-125 181.86533 L-120 173.20508 L-110 173.20508 L-105 181.86533 L-110 190.52557 L-120 190.52557 L-125 199.18582 L-120 207.84607 L-125 216.50632 L-135 216.50632 L-140 207.84607 L-150 207.84607 L-155 216.50632 L-150 225.16656 L-140 225.16656 L-135 233.82681 L-140 242.48706 L-150 242.48706 L-155 251.14731 L-150 259.80756 L-155 268.4678 L-165 268.4678 L-170 259.80756 L-165 251.14731 L-170 242.48706 L-180 242.48706 L-185 233.82681 L-180 225.16656 L-170 225.16656 L-165 216.50632 L-170 207.84607 L-180 207.84607 L-185 216.50632 L-195 216.50632 L-200 207.84607 L-195 199.18582 L-200 190.52557 L-210 190.52557 L-215 181.86533 L-210 173.20508 L-200 173.20508 L-195 181.86533 L-185 181.86533 L-180 173.20508 L-185 164.54483 L-180 155.88458 L-170 155.88458 L-165 147.22433 L-170 138.56409 L-180 138.56409 L-185 147.22433 L-195 147.22433 L-200 138.56409 L-210 138.56409 L-215 147.22433 L-210 155.88458 L-215 164.54483 L-225 164.54483 L-230 155.88458 L-225 147.22433 L-230 138.56409 L-240 138.56409 L-245 129.90384 L-240 121.24358 L-230 121.24358 L-225 112.58333 L-230 103.92307 L-240 103.92307 L-245 112.58333 L-255 112.58333 L-260 103.92307 L-255 95.26282 L-260 86.60256 L-270 86.60256 L-275 77.94231 L-270 69.28205 L-260 69.28205 L-255 77.94231 L-245 77.94231 L-240 69.28205 L-230 69.28205 L-225 77.94231 L-230 86.60256 L-225 95.26282 L-215 95.26282 L-210 86.60256 L-215 77.94231 L-210 69.28205 L-200 69.28205 L-195 60.621796 L-200 51.96154 L-210 51.96154 L-215 43.301285 L-210 34.64103 L-200 34.64103 L-195 43.301285 L-185 43.301285 L-180 34.64103 L-185 25.980776 L-180 17.320522 L-170 17.320522 L-165 8.660269 L-170 0.000015258789 L-180 0.000015695903 L-185 8.660271 L-195 8.660271 L-200 0.000017166138 L-210 0.000017603252 L-215 8.660273 L-210 17.320526 L-215 25.980782 L-225 25.980782 L-230 17.320528 L-225 8.6602745 L-230 0.000020980835 L-240 0.000021417949 L-245 8.660276 L-255 8.660276 L-260 0.000022888184 L-270 0.000023325298 L-275 8.660278 L-270 17.32053 L-260 17.32053 L-255 25.980782 L-260 34.641037 L-270 34.641037 L-275 43.301292 L-270 51.961544 L-275 60.6218 L-285 60.6218 L-290 51.961548 L-285 43.301292 L-290 34.641037 L-300 34.641037 L-305 25.980783 L-300 17.32053 L-290 17.32053 L-285 8.660276 L-290 0.000022888184 L-300 0.000023325298 L-305 8.660278 L-315 8.660278 L-320 0.000024795532" />
</g>
</svg>
